<mxfile host="app.diagrams.net" modified="2021-03-11T20:06:40.092Z" agent="5.0 (Windows NT 10.0; Win64; x64) AppleWebKit/537.36 (KHTML, like Gecko) Chrome/88.0.4324.190 Safari/537.36" etag="VafyBx2ZUkuug6darl_A" version="14.4.7" type="github" pages="2">
  <diagram id="kgpKYQtTHZ0yAKxKKP6v" name="Page-1">
    <mxGraphModel dx="1422" dy="762" grid="1" gridSize="10" guides="1" tooltips="1" connect="1" arrows="1" fold="1" page="1" pageScale="1" pageWidth="850" pageHeight="1100" math="0" shadow="0">
      <root>
        <mxCell id="0" />
        <mxCell id="1" parent="0" />
        <mxCell id="srczL9WE6WNW8JsuDgXF-2" value="Teleport lerak" style="shape=umlFrame;whiteSpace=wrap;html=1;" parent="1" vertex="1">
          <mxGeometry x="20" y="40" width="710" height="530" as="geometry" />
        </mxCell>
        <mxCell id="pmfMfa2IUyMt7tXiD2yf-2" value="alt" style="shape=umlFrame;whiteSpace=wrap;html=1;" parent="1" vertex="1">
          <mxGeometry x="310" y="170" width="400" height="320" as="geometry" />
        </mxCell>
        <mxCell id="3nuBFxr9cyL0pnOWT2aG-1" value="t:Telepes" style="shape=umlLifeline;perimeter=lifelinePerimeter;container=1;collapsible=0;recursiveResize=0;rounded=0;shadow=0;strokeWidth=1;" parent="1" vertex="1">
          <mxGeometry x="180" y="50" width="100" height="510" as="geometry" />
        </mxCell>
        <mxCell id="3nuBFxr9cyL0pnOWT2aG-2" value="" style="points=[];perimeter=orthogonalPerimeter;rounded=0;shadow=0;strokeWidth=1;" parent="3nuBFxr9cyL0pnOWT2aG-1" vertex="1">
          <mxGeometry x="45" y="80" width="10" height="400" as="geometry" />
        </mxCell>
        <mxCell id="3nuBFxr9cyL0pnOWT2aG-5" value="aszteroida:Aszteroida" style="shape=umlLifeline;perimeter=lifelinePerimeter;container=1;collapsible=0;recursiveResize=0;rounded=0;shadow=0;strokeWidth=1;" parent="1" vertex="1">
          <mxGeometry x="570" y="50" width="120" height="510" as="geometry" />
        </mxCell>
        <mxCell id="3nuBFxr9cyL0pnOWT2aG-6" value="" style="points=[];perimeter=orthogonalPerimeter;rounded=0;shadow=0;strokeWidth=1;" parent="3nuBFxr9cyL0pnOWT2aG-5" vertex="1">
          <mxGeometry x="55" y="160" width="10" height="40" as="geometry" />
        </mxCell>
        <mxCell id="yMqLdswsQX3L9AiM1ZZN-1" value="1: KapuLerak(k: Teleportkapu)" style="endArrow=classic;html=1;entryX=0.433;entryY=0.052;entryDx=0;entryDy=0;entryPerimeter=0;" parent="1" source="VdQBYoIOuccDySGhW8ns-1" target="3nuBFxr9cyL0pnOWT2aG-2" edge="1">
          <mxGeometry x="0.0046" y="22" width="50" height="50" relative="1" as="geometry">
            <mxPoint x="110" y="130" as="sourcePoint" />
            <mxPoint x="225" y="122" as="targetPoint" />
            <mxPoint as="offset" />
          </mxGeometry>
        </mxCell>
        <mxCell id="yMqLdswsQX3L9AiM1ZZN-5" value="" style="endArrow=classic;html=1;dashed=1;" parent="1" source="3nuBFxr9cyL0pnOWT2aG-2" edge="1">
          <mxGeometry width="50" height="50" relative="1" as="geometry">
            <mxPoint x="225" y="630" as="sourcePoint" />
            <mxPoint x="80" y="530" as="targetPoint" />
            <Array as="points">
              <mxPoint x="170" y="530" />
            </Array>
          </mxGeometry>
        </mxCell>
        <mxCell id="yMqLdswsQX3L9AiM1ZZN-6" value="k:Teleportkapu" style="shape=umlLifeline;perimeter=lifelinePerimeter;container=1;collapsible=0;recursiveResize=0;rounded=0;shadow=0;strokeWidth=1;" parent="1" vertex="1">
          <mxGeometry x="385" y="50" width="100" height="510" as="geometry" />
        </mxCell>
        <mxCell id="yMqLdswsQX3L9AiM1ZZN-7" value="" style="points=[];perimeter=orthogonalPerimeter;rounded=0;shadow=0;strokeWidth=1;" parent="yMqLdswsQX3L9AiM1ZZN-6" vertex="1">
          <mxGeometry x="45" y="110" width="10" height="280" as="geometry" />
        </mxCell>
        <mxCell id="_9Nf5Z6jAj5F_BvomrrG-3" value="" style="shape=umlDestroy;whiteSpace=wrap;html=1;strokeWidth=3;" parent="yMqLdswsQX3L9AiM1ZZN-6" vertex="1">
          <mxGeometry x="35" y="400" width="30" height="30" as="geometry" />
        </mxCell>
        <mxCell id="yMqLdswsQX3L9AiM1ZZN-8" value="2: setSajatAszteroida(&lt;span style=&quot;font-size: 12px ; background-color: rgb(248 , 249 , 250)&quot;&gt;aszteroida&lt;/span&gt;&lt;br&gt;: Aszteroida)" style="endArrow=classic;html=1;" parent="1" source="3nuBFxr9cyL0pnOWT2aG-2" target="yMqLdswsQX3L9AiM1ZZN-7" edge="1">
          <mxGeometry x="0.0769" y="20" width="50" height="50" relative="1" as="geometry">
            <mxPoint x="430" y="290" as="sourcePoint" />
            <mxPoint x="480" y="240" as="targetPoint" />
            <Array as="points">
              <mxPoint x="360" y="160" />
            </Array>
            <mxPoint as="offset" />
          </mxGeometry>
        </mxCell>
        <mxCell id="yMqLdswsQX3L9AiM1ZZN-9" value="" style="endArrow=classic;html=1;dashed=1;" parent="1" source="yMqLdswsQX3L9AiM1ZZN-7" target="3nuBFxr9cyL0pnOWT2aG-1" edge="1">
          <mxGeometry width="50" height="50" relative="1" as="geometry">
            <mxPoint x="675" y="570" as="sourcePoint" />
            <mxPoint x="235" y="570" as="targetPoint" />
            <Array as="points">
              <mxPoint x="410" y="290" />
            </Array>
          </mxGeometry>
        </mxCell>
        <mxCell id="pmfMfa2IUyMt7tXiD2yf-3" value="" style="html=1;verticalAlign=bottom;endArrow=open;dashed=1;endSize=8;" parent="1" source="3nuBFxr9cyL0pnOWT2aG-6" target="yMqLdswsQX3L9AiM1ZZN-7" edge="1">
          <mxGeometry relative="1" as="geometry">
            <mxPoint x="475" y="480" as="sourcePoint" />
            <mxPoint x="235" y="480" as="targetPoint" />
            <Array as="points">
              <mxPoint x="570" y="250" />
            </Array>
          </mxGeometry>
        </mxCell>
        <mxCell id="pmfMfa2IUyMt7tXiD2yf-4" value="3: AddSzomszed(k: Teleportkapu)" style="html=1;verticalAlign=bottom;endArrow=block;" parent="1" source="yMqLdswsQX3L9AiM1ZZN-7" target="3nuBFxr9cyL0pnOWT2aG-6" edge="1">
          <mxGeometry x="0.0183" width="80" relative="1" as="geometry">
            <mxPoint x="510" y="410" as="sourcePoint" />
            <mxPoint x="590" y="410" as="targetPoint" />
            <Array as="points">
              <mxPoint x="520" y="210" />
            </Array>
            <mxPoint as="offset" />
          </mxGeometry>
        </mxCell>
        <mxCell id="pmfMfa2IUyMt7tXiD2yf-13" value="[!mukodikE]" style="text;html=1;strokeColor=none;fillColor=none;align=center;verticalAlign=middle;whiteSpace=wrap;rounded=0;" parent="1" vertex="1">
          <mxGeometry x="290" y="320" width="130" height="20" as="geometry" />
        </mxCell>
        <mxCell id="pmfMfa2IUyMt7tXiD2yf-15" value="[mukodikE]" style="text;html=1;strokeColor=none;fillColor=none;align=center;verticalAlign=middle;whiteSpace=wrap;rounded=0;" parent="1" vertex="1">
          <mxGeometry x="290" y="210" width="130" height="20" as="geometry" />
        </mxCell>
        <mxCell id="_9Nf5Z6jAj5F_BvomrrG-1" value="" style="endArrow=none;dashed=1;html=1;dashPattern=1 3;strokeWidth=2;" parent="1" edge="1">
          <mxGeometry width="50" height="50" relative="1" as="geometry">
            <mxPoint x="310" y="300" as="sourcePoint" />
            <mxPoint x="710" y="300" as="targetPoint" />
          </mxGeometry>
        </mxCell>
        <mxCell id="_9Nf5Z6jAj5F_BvomrrG-2" value="" style="endArrow=classic;html=1;dashed=1;" parent="1" source="yMqLdswsQX3L9AiM1ZZN-7" target="3nuBFxr9cyL0pnOWT2aG-2" edge="1">
          <mxGeometry width="50" height="50" relative="1" as="geometry">
            <mxPoint x="587.75" y="440" as="sourcePoint" />
            <mxPoint x="232.25" y="440" as="targetPoint" />
            <Array as="points">
              <mxPoint x="380" y="440" />
            </Array>
          </mxGeometry>
        </mxCell>
        <mxCell id="VdQBYoIOuccDySGhW8ns-1" value="Player" style="shape=umlLifeline;participant=umlActor;perimeter=lifelinePerimeter;whiteSpace=wrap;html=1;container=1;collapsible=0;recursiveResize=0;verticalAlign=top;spacingTop=36;outlineConnect=0;" parent="1" vertex="1">
          <mxGeometry x="70" y="60" width="20" height="480" as="geometry" />
        </mxCell>
      </root>
    </mxGraphModel>
  </diagram>
  <diagram id="0-pCElIyqhPctkmDhNNV" name="Komm. diag">
    <mxGraphModel dx="582" dy="1634" grid="1" gridSize="10" guides="1" tooltips="1" connect="1" arrows="1" fold="1" page="1" pageScale="1" pageWidth="1654" pageHeight="1169" math="0" shadow="0">
      <root>
        <mxCell id="5Btjwr6h8UJS2N1FlkN6-0" />
        <mxCell id="5Btjwr6h8UJS2N1FlkN6-1" parent="5Btjwr6h8UJS2N1FlkN6-0" />
        <mxCell id="E4s-iGaniDYBvtRlqLjd-0" value="Teleport lerak" style="shape=umlFrame;whiteSpace=wrap;html=1;" vertex="1" parent="5Btjwr6h8UJS2N1FlkN6-1">
          <mxGeometry x="20" y="520" width="710" height="50" as="geometry" />
        </mxCell>
        <mxCell id="E4s-iGaniDYBvtRlqLjd-1" value="alt" style="shape=umlFrame;whiteSpace=wrap;html=1;" vertex="1" parent="5Btjwr6h8UJS2N1FlkN6-1">
          <mxGeometry x="1030.5" y="160" width="400" height="320" as="geometry" />
        </mxCell>
        <mxCell id="E4s-iGaniDYBvtRlqLjd-2" value="t:Telepes" style="shape=umlLifeline;perimeter=lifelinePerimeter;container=1;collapsible=0;recursiveResize=0;rounded=0;shadow=0;strokeWidth=1;" vertex="1" parent="5Btjwr6h8UJS2N1FlkN6-1">
          <mxGeometry x="900.5" y="40" width="100" height="510" as="geometry" />
        </mxCell>
        <mxCell id="E4s-iGaniDYBvtRlqLjd-3" value="" style="points=[];perimeter=orthogonalPerimeter;rounded=0;shadow=0;strokeWidth=1;" vertex="1" parent="E4s-iGaniDYBvtRlqLjd-2">
          <mxGeometry x="45" y="80" width="10" height="400" as="geometry" />
        </mxCell>
        <mxCell id="E4s-iGaniDYBvtRlqLjd-4" value="aszteroida:Aszteroida" style="shape=umlLifeline;perimeter=lifelinePerimeter;container=1;collapsible=0;recursiveResize=0;rounded=0;shadow=0;strokeWidth=1;" vertex="1" parent="5Btjwr6h8UJS2N1FlkN6-1">
          <mxGeometry x="1290.5" y="40" width="120" height="510" as="geometry" />
        </mxCell>
        <mxCell id="E4s-iGaniDYBvtRlqLjd-5" value="" style="points=[];perimeter=orthogonalPerimeter;rounded=0;shadow=0;strokeWidth=1;" vertex="1" parent="E4s-iGaniDYBvtRlqLjd-4">
          <mxGeometry x="55" y="160" width="10" height="40" as="geometry" />
        </mxCell>
        <mxCell id="E4s-iGaniDYBvtRlqLjd-6" value="1: KapuLerak(k: Teleportkapu)" style="endArrow=classic;html=1;entryX=0.433;entryY=0.052;entryDx=0;entryDy=0;entryPerimeter=0;" edge="1" parent="5Btjwr6h8UJS2N1FlkN6-1" target="E4s-iGaniDYBvtRlqLjd-3">
          <mxGeometry x="0.0046" y="22" width="50" height="50" relative="1" as="geometry">
            <mxPoint x="800" y="140.79999999999995" as="sourcePoint" />
            <mxPoint x="945.5" y="112" as="targetPoint" />
            <mxPoint as="offset" />
          </mxGeometry>
        </mxCell>
        <mxCell id="E4s-iGaniDYBvtRlqLjd-7" value="" style="endArrow=classic;html=1;dashed=1;" edge="1" parent="5Btjwr6h8UJS2N1FlkN6-1" source="E4s-iGaniDYBvtRlqLjd-3">
          <mxGeometry width="50" height="50" relative="1" as="geometry">
            <mxPoint x="945.5" y="620" as="sourcePoint" />
            <mxPoint x="800.5" y="520" as="targetPoint" />
            <Array as="points">
              <mxPoint x="890.5" y="520" />
            </Array>
          </mxGeometry>
        </mxCell>
        <mxCell id="E4s-iGaniDYBvtRlqLjd-8" value="k:Teleportkapu" style="shape=umlLifeline;perimeter=lifelinePerimeter;container=1;collapsible=0;recursiveResize=0;rounded=0;shadow=0;strokeWidth=1;" vertex="1" parent="5Btjwr6h8UJS2N1FlkN6-1">
          <mxGeometry x="1105.5" y="40" width="100" height="510" as="geometry" />
        </mxCell>
        <mxCell id="E4s-iGaniDYBvtRlqLjd-9" value="" style="points=[];perimeter=orthogonalPerimeter;rounded=0;shadow=0;strokeWidth=1;" vertex="1" parent="E4s-iGaniDYBvtRlqLjd-8">
          <mxGeometry x="45" y="110" width="10" height="280" as="geometry" />
        </mxCell>
        <mxCell id="E4s-iGaniDYBvtRlqLjd-10" value="" style="shape=umlDestroy;whiteSpace=wrap;html=1;strokeWidth=3;" vertex="1" parent="E4s-iGaniDYBvtRlqLjd-8">
          <mxGeometry x="35" y="400" width="30" height="30" as="geometry" />
        </mxCell>
        <mxCell id="E4s-iGaniDYBvtRlqLjd-11" value="2: setSajatAszteroida(&lt;span style=&quot;font-size: 12px ; background-color: rgb(248 , 249 , 250)&quot;&gt;aszteroida&lt;/span&gt;&lt;br&gt;: Aszteroida)" style="endArrow=classic;html=1;" edge="1" parent="5Btjwr6h8UJS2N1FlkN6-1" source="E4s-iGaniDYBvtRlqLjd-3" target="E4s-iGaniDYBvtRlqLjd-9">
          <mxGeometry x="0.0769" y="20" width="50" height="50" relative="1" as="geometry">
            <mxPoint x="1150.5" y="280" as="sourcePoint" />
            <mxPoint x="1200.5" y="230" as="targetPoint" />
            <Array as="points">
              <mxPoint x="1080.5" y="150" />
            </Array>
            <mxPoint as="offset" />
          </mxGeometry>
        </mxCell>
        <mxCell id="E4s-iGaniDYBvtRlqLjd-12" value="" style="endArrow=classic;html=1;dashed=1;" edge="1" parent="5Btjwr6h8UJS2N1FlkN6-1" source="E4s-iGaniDYBvtRlqLjd-9" target="E4s-iGaniDYBvtRlqLjd-2">
          <mxGeometry width="50" height="50" relative="1" as="geometry">
            <mxPoint x="1395.5" y="560" as="sourcePoint" />
            <mxPoint x="955.5" y="560" as="targetPoint" />
            <Array as="points">
              <mxPoint x="1130.5" y="280" />
            </Array>
          </mxGeometry>
        </mxCell>
        <mxCell id="E4s-iGaniDYBvtRlqLjd-13" value="" style="html=1;verticalAlign=bottom;endArrow=open;dashed=1;endSize=8;" edge="1" parent="5Btjwr6h8UJS2N1FlkN6-1" source="E4s-iGaniDYBvtRlqLjd-5" target="E4s-iGaniDYBvtRlqLjd-9">
          <mxGeometry relative="1" as="geometry">
            <mxPoint x="1195.5" y="470" as="sourcePoint" />
            <mxPoint x="955.5" y="470" as="targetPoint" />
            <Array as="points">
              <mxPoint x="1290.5" y="240" />
            </Array>
          </mxGeometry>
        </mxCell>
        <mxCell id="E4s-iGaniDYBvtRlqLjd-14" value="3: AddSzomszed(k: Teleportkapu)" style="html=1;verticalAlign=bottom;endArrow=block;" edge="1" parent="5Btjwr6h8UJS2N1FlkN6-1" source="E4s-iGaniDYBvtRlqLjd-9" target="E4s-iGaniDYBvtRlqLjd-5">
          <mxGeometry x="0.0183" width="80" relative="1" as="geometry">
            <mxPoint x="1230.5" y="400" as="sourcePoint" />
            <mxPoint x="1310.5" y="400" as="targetPoint" />
            <Array as="points">
              <mxPoint x="1240.5" y="200" />
            </Array>
            <mxPoint as="offset" />
          </mxGeometry>
        </mxCell>
        <mxCell id="E4s-iGaniDYBvtRlqLjd-15" value="[!mukodikE]" style="text;html=1;strokeColor=none;fillColor=none;align=center;verticalAlign=middle;whiteSpace=wrap;rounded=0;" vertex="1" parent="5Btjwr6h8UJS2N1FlkN6-1">
          <mxGeometry x="1010.5" y="310" width="130" height="20" as="geometry" />
        </mxCell>
        <mxCell id="E4s-iGaniDYBvtRlqLjd-16" value="[mukodikE]" style="text;html=1;strokeColor=none;fillColor=none;align=center;verticalAlign=middle;whiteSpace=wrap;rounded=0;" vertex="1" parent="5Btjwr6h8UJS2N1FlkN6-1">
          <mxGeometry x="1010.5" y="200" width="130" height="20" as="geometry" />
        </mxCell>
        <mxCell id="E4s-iGaniDYBvtRlqLjd-17" value="" style="endArrow=none;dashed=1;html=1;dashPattern=1 3;strokeWidth=2;" edge="1" parent="5Btjwr6h8UJS2N1FlkN6-1">
          <mxGeometry width="50" height="50" relative="1" as="geometry">
            <mxPoint x="1030.5" y="290" as="sourcePoint" />
            <mxPoint x="1430.5" y="290" as="targetPoint" />
          </mxGeometry>
        </mxCell>
        <mxCell id="E4s-iGaniDYBvtRlqLjd-18" value="" style="endArrow=classic;html=1;dashed=1;" edge="1" parent="5Btjwr6h8UJS2N1FlkN6-1" source="E4s-iGaniDYBvtRlqLjd-9" target="E4s-iGaniDYBvtRlqLjd-3">
          <mxGeometry width="50" height="50" relative="1" as="geometry">
            <mxPoint x="1308.25" y="430" as="sourcePoint" />
            <mxPoint x="952.75" y="430" as="targetPoint" />
            <Array as="points">
              <mxPoint x="1100.5" y="430" />
            </Array>
          </mxGeometry>
        </mxCell>
        <mxCell id="E4s-iGaniDYBvtRlqLjd-22" value="t: Telepes" style="html=1;" vertex="1" parent="5Btjwr6h8UJS2N1FlkN6-1">
          <mxGeometry x="490" y="220" width="90" height="40" as="geometry" />
        </mxCell>
        <mxCell id="E4s-iGaniDYBvtRlqLjd-23" value="a: Aszteroida" style="html=1;" vertex="1" parent="5Btjwr6h8UJS2N1FlkN6-1">
          <mxGeometry x="420" y="70" width="90" height="40" as="geometry" />
        </mxCell>
        <mxCell id="E4s-iGaniDYBvtRlqLjd-24" value="tpe: TeleportEpito" style="html=1;" vertex="1" parent="5Btjwr6h8UJS2N1FlkN6-1">
          <mxGeometry x="300" y="360" width="110" height="40" as="geometry" />
        </mxCell>
        <mxCell id="E4s-iGaniDYBvtRlqLjd-25" value="Controller" style="html=1;" vertex="1" parent="5Btjwr6h8UJS2N1FlkN6-1">
          <mxGeometry x="70" y="220" width="90" height="40" as="geometry" />
        </mxCell>
        <mxCell id="E4s-iGaniDYBvtRlqLjd-26" value="2. &amp;lt;&amp;lt;create&amp;gt;&amp;gt; Telepes(a)" style="html=1;verticalAlign=bottom;endArrow=block;exitX=1;exitY=0.25;exitDx=0;exitDy=0;entryX=0;entryY=0.5;entryDx=0;entryDy=0;" edge="1" parent="5Btjwr6h8UJS2N1FlkN6-1" source="E4s-iGaniDYBvtRlqLjd-25" target="E4s-iGaniDYBvtRlqLjd-22">
          <mxGeometry width="80" relative="1" as="geometry">
            <mxPoint x="530" y="230" as="sourcePoint" />
            <mxPoint x="610" y="230" as="targetPoint" />
          </mxGeometry>
        </mxCell>
        <mxCell id="E4s-iGaniDYBvtRlqLjd-27" value="" style="html=1;verticalAlign=bottom;endArrow=none;exitX=1;exitY=0;exitDx=0;exitDy=0;entryX=0;entryY=0.5;entryDx=0;entryDy=0;endFill=0;" edge="1" parent="5Btjwr6h8UJS2N1FlkN6-1" source="E4s-iGaniDYBvtRlqLjd-25" target="E4s-iGaniDYBvtRlqLjd-23">
          <mxGeometry x="0.1692" y="-40" width="80" relative="1" as="geometry">
            <mxPoint x="170" y="230" as="sourcePoint" />
            <mxPoint x="400" y="130" as="targetPoint" />
            <mxPoint as="offset" />
          </mxGeometry>
        </mxCell>
        <mxCell id="E4s-iGaniDYBvtRlqLjd-28" value="3. &amp;lt;&amp;lt;create&amp;gt;&amp;gt; TeleportEpito()" style="html=1;verticalAlign=bottom;endArrow=block;exitX=1;exitY=1;exitDx=0;exitDy=0;entryX=0;entryY=0.5;entryDx=0;entryDy=0;" edge="1" parent="5Btjwr6h8UJS2N1FlkN6-1" source="E4s-iGaniDYBvtRlqLjd-25" target="E4s-iGaniDYBvtRlqLjd-24">
          <mxGeometry width="80" relative="1" as="geometry">
            <mxPoint x="170" y="240" as="sourcePoint" />
            <mxPoint x="500" y="250" as="targetPoint" />
          </mxGeometry>
        </mxCell>
        <mxCell id="E4s-iGaniDYBvtRlqLjd-29" value="4.TeleportEpit(tpe)" style="text;html=1;align=center;verticalAlign=middle;resizable=0;points=[];autosize=1;" vertex="1" parent="5Btjwr6h8UJS2N1FlkN6-1">
          <mxGeometry x="270" y="90" width="110" height="20" as="geometry" />
        </mxCell>
        <mxCell id="E4s-iGaniDYBvtRlqLjd-30" value="k1: Teleportkapu" style="html=1;" vertex="1" parent="5Btjwr6h8UJS2N1FlkN6-1">
          <mxGeometry x="540" y="150" width="110" height="40" as="geometry" />
        </mxCell>
        <mxCell id="E4s-iGaniDYBvtRlqLjd-31" value="" style="endArrow=none;html=1;edgeStyle=orthogonalEdgeStyle;exitX=0.5;exitY=1;exitDx=0;exitDy=0;" edge="1" parent="5Btjwr6h8UJS2N1FlkN6-1" source="E4s-iGaniDYBvtRlqLjd-23" target="E4s-iGaniDYBvtRlqLjd-30">
          <mxGeometry relative="1" as="geometry">
            <mxPoint x="470" y="230" as="sourcePoint" />
            <mxPoint x="630" y="230" as="targetPoint" />
            <Array as="points">
              <mxPoint x="465" y="170" />
            </Array>
          </mxGeometry>
        </mxCell>
        <mxCell id="E4s-iGaniDYBvtRlqLjd-34" value="1. &amp;lt;&amp;lt;create&amp;gt;&amp;gt; Aszteroida()" style="html=1;verticalAlign=bottom;endArrow=block;" edge="1" parent="5Btjwr6h8UJS2N1FlkN6-1">
          <mxGeometry x="-0.616" y="18" width="80" relative="1" as="geometry">
            <mxPoint x="190" y="189.5" as="sourcePoint" />
            <mxPoint x="230" y="170" as="targetPoint" />
            <mxPoint y="1" as="offset" />
          </mxGeometry>
        </mxCell>
      </root>
    </mxGraphModel>
  </diagram>
</mxfile>
